<?xml version="1.0" standalone="no"?><!DOCTYPE svg PUBLIC "-//W3C//DTD SVG 1.1//EN" "http://www.w3.org/Graphics/SVG/1.1/DTD/svg11.dtd"><svg t="1745309424617" class="icon" viewBox="0 0 1024 1024" version="1.1" xmlns="http://www.w3.org/2000/svg" p-id="7863" xmlns:xlink="http://www.w3.org/1999/xlink" width="200" height="200"><path d="M945.23 787.692H1024v78.77h-78.77z m0-78.769H1024v78.77h-78.77z m0-78.77H1024v78.77h-78.77z m-78.768 236.309h78.769v78.769h-78.77z" fill="#1E2028" p-id="7864"></path><path d="M866.462 787.692h78.769v78.77h-78.77z m0-78.769h78.769v78.77h-78.77z m0-78.77h78.769v78.77h-78.77z" fill="#1296DB" p-id="7865"></path><path d="M866.462 551.385h78.769v78.769h-78.77z m-78.77 393.846h78.77V1024h-78.77z" fill="#1E2028" p-id="7866"></path><path d="M787.692 866.462h78.77v78.769h-78.77z" fill="#1296DB" p-id="7867"></path><path d="M787.692 787.692h78.77v78.77h-78.77z m0-78.769h78.77v78.77h-78.77z m0-78.77h78.77v78.77h-78.77z" fill="#4FB6F4" p-id="7868"></path><path d="M787.692 551.385h78.77v78.769h-78.77z" fill="#1296DB" p-id="7869"></path><path d="M787.692 472.615h78.77v78.77h-78.77z m0-78.769h78.77v78.77h-78.77z m0-78.77h78.77v78.77h-78.77z m0-78.768h78.77v78.769h-78.77z m0-78.77h78.77v78.77h-78.77z m0-78.769h78.77v78.77h-78.77z m-78.769 866.462h78.77V1024h-78.77z" fill="#1E2028" p-id="7870"></path><path d="M708.923 866.462h78.77v78.769h-78.77z" fill="#1296DB" p-id="7871"></path><path d="M708.923 787.692h78.77v78.77h-78.77z m0-78.769h78.77v78.77h-78.77z m0-78.77h78.77v78.77h-78.77z m0-78.768h78.77v78.769h-78.77z" fill="#4FB6F4" p-id="7872"></path><path d="M708.923 472.615h78.77v78.77h-78.77z m0-78.769h78.77v78.77h-78.77z m0-78.77h78.77v78.77h-78.77z m0-78.768h78.77v78.769h-78.77z m0-78.77h78.77v78.77h-78.77z m0-78.769h78.77v78.77h-78.77z" fill="#1296DB" p-id="7873"></path><path d="M708.923 0h78.77v78.77h-78.77z m-78.77 945.23h78.77V1024h-78.77z" fill="#1E2028" p-id="7874"></path><path d="M630.154 866.462h78.77v78.769h-78.77z" fill="#1296DB" p-id="7875"></path><path d="M630.154 787.692h78.77v78.77h-78.77z" fill="#4FB6F4" p-id="7876"></path><path d="M630.154 708.923h78.77v78.77h-78.77z m0-78.77h78.77v78.77h-78.77z" fill="#1E2028" p-id="7877"></path><path d="M630.154 551.385h78.77v78.769h-78.77z" fill="#4FB6F4" p-id="7878"></path><path d="M630.154 472.615h78.77v78.77h-78.77z m0-78.769h78.77v78.77h-78.77z m0-78.77h78.77v78.77h-78.77z m0-78.768h78.77v78.769h-78.77z m0-78.77h78.77v78.77h-78.77z m0-78.769h78.77v78.77h-78.77z" fill="#54BCF2" p-id="7879"></path><path d="M630.154 0h78.77v78.77h-78.77z m-78.77 945.23h78.77V1024h-78.77z" fill="#1E2028" p-id="7880"></path><path d="M551.385 866.462h78.769v78.769h-78.77z" fill="#1296DB" p-id="7881"></path><path d="M551.385 787.692h78.769v78.77h-78.77z m0-78.769h78.769v78.77h-78.77z m0-78.77h78.769v78.77h-78.77z m0-78.768h78.769v78.769h-78.77z" fill="#4FB6F4" p-id="7882"></path><path d="M551.385 472.615h78.769v78.77h-78.77z m0-78.769h78.769v78.77h-78.77z m0-78.77h78.769v78.77h-78.77z m0-78.768h78.769v78.769h-78.77z m0-78.77h78.769v78.77h-78.77z m0-78.769h78.769v78.77h-78.77z m-78.77 866.462h78.77V1024h-78.77z" fill="#1E2028" p-id="7883"></path><path d="M472.615 866.462h78.77v78.769h-78.77z" fill="#1296DB" p-id="7884"></path><path d="M472.615 787.692h78.77v78.77h-78.77z" fill="#1E2028" p-id="7885"></path><path d="M472.615 708.923h78.77v78.77h-78.77z m0-78.77h78.77v78.77h-78.77z m0-78.768h78.77v78.769h-78.77z" fill="#4FB6F4" p-id="7886"></path><path d="M472.615 472.615h78.77v78.77h-78.77z m-78.769 472.616h78.77V1024h-78.77z" fill="#1E2028" p-id="7887"></path><path d="M393.846 866.462h78.77v78.769h-78.77z" fill="#1296DB" p-id="7888"></path><path d="M393.846 787.692h78.77v78.77h-78.77z m0-78.769h78.77v78.77h-78.77z m0-78.77h78.77v78.77h-78.77z m0-78.768h78.77v78.769h-78.77z" fill="#4FB6F4" p-id="7889"></path><path d="M393.846 472.615h78.77v78.77h-78.77z m0-78.769h78.77v78.77h-78.77z m0-78.77h78.77v78.77h-78.77z m0-78.768h78.77v78.769h-78.77z m0-78.77h78.77v78.77h-78.77z m0-78.769h78.77v78.77h-78.77z m-78.77 866.462h78.77V1024h-78.77z" fill="#1E2028" p-id="7890"></path><path d="M315.077 866.462h78.77v78.769h-78.77z" fill="#1296DB" p-id="7891"></path><path d="M315.077 787.692h78.77v78.77h-78.77z" fill="#4FB6F4" p-id="7892"></path><path d="M315.077 708.923h78.77v78.77h-78.77z m0-78.77h78.77v78.77h-78.77z" fill="#1E2028" p-id="7893"></path><path d="M315.077 551.385h78.77v78.769h-78.77z" fill="#4FB6F4" p-id="7894"></path><path d="M315.077 472.615h78.77v78.77h-78.77z m0-78.769h78.77v78.77h-78.77z m0-78.77h78.77v78.77h-78.77z m0-78.768h78.77v78.769h-78.77z m0-78.77h78.77v78.77h-78.77z m0-78.769h78.77v78.77h-78.77z" fill="#1296DB" p-id="7895"></path><path d="M315.077 0h78.77v78.77h-78.77z m-78.77 945.23h78.77V1024h-78.77z" fill="#1E2028" p-id="7896"></path><path d="M236.308 866.462h78.769v78.769h-78.77z" fill="#54BCF2" p-id="7897"></path><path d="M236.308 787.692h78.769v78.77h-78.77z m0-78.769h78.769v78.77h-78.77z m0-78.77h78.769v78.77h-78.77z m0-78.768h78.769v78.769h-78.77z" fill="#4FB6F4" p-id="7898"></path><path d="M236.308 472.615h78.769v78.77h-78.77z m0-78.769h78.769v78.77h-78.77z m0-78.77h78.769v78.77h-78.77z m0-78.768h78.769v78.769h-78.77z m0-78.77h78.769v78.77h-78.77z m0-78.769h78.769v78.77h-78.77z" fill="#54BCF2" p-id="7899"></path><path d="M236.308 0h78.769v78.77h-78.77z m-78.77 945.23h78.77V1024h-78.77z" fill="#1E2028" p-id="7900"></path><path d="M157.538 866.462h78.77v78.769h-78.77z" fill="#54BCF2" p-id="7901"></path><path d="M157.538 787.692h78.77v78.77h-78.77z m0-78.769h78.77v78.77h-78.77z m0-78.77h78.77v78.77h-78.77z" fill="#4FB6F4" p-id="7902"></path><path d="M157.538 551.385h78.77v78.769h-78.77z" fill="#54BCF2" p-id="7903"></path><path d="M157.538 472.615h78.77v78.77h-78.77z m0-78.769h78.77v78.77h-78.77z m0-78.77h78.77v78.77h-78.77z m0-78.768h78.77v78.769h-78.77z m0-78.77h78.77v78.77h-78.77z m0-78.769h78.77v78.77h-78.77zM78.77 866.462h78.77v78.769h-78.77z" fill="#1E2028" p-id="7904"></path><path d="M78.77 787.692h78.768v78.77H78.77z m0-78.769h78.768v78.77H78.77z m0-78.77h78.768v78.77H78.77z" fill="#54BCF2" p-id="7905"></path><path d="M78.77 551.385h78.768v78.769H78.77zM0 787.692h78.77v78.77H0z m0-78.769h78.77v78.77H0z m0-78.77h78.77v78.77H0z" fill="#1E2028" p-id="7906"></path></svg>